<svg xmlns="http://www.w3.org/2000/svg" viewBox="0 0 99.07 100"><defs><style>.cls-1{fill:#fff}.cls-2{fill:#282d33}.cls-3{fill:#30c0d8}</style></defs><title>icon-2</title><g id="Layer_2" data-name="Layer 2"><g id="Layer_4" data-name="Layer 4"><rect class="cls-1" x="2" y="12.67" width="81.33" height="74.67" rx="4" ry="4"/><path class="cls-2" d="M79.33 89.33H6a6 6 0 0 1-6-6V16.67a6 6 0 0 1 6-6h73.33a6 6 0 0 1 6 6v66.66a6 6 0 0 1-6 6zM6 14.67a2 2 0 0 0-2 2v66.66a2 2 0 0 0 2 2h73.33a2 2 0 0 0 2-2V16.67a2 2 0 0 0-2-2z"/><path class="cls-3" d="M8 18.67h69.33v62.67H8z"/><path class="cls-1" d="M65.45 43.78l-6-10.4-10.78 6.22V27.16H36.66V39.6l-10.77-6.22-6.01 10.4L30.66 50l-10.78 6.22 6.01 10.4 10.77-6.22v12.44h12.01V60.4l10.78 6.22 6-10.4L54.68 50l10.77-6.22z"/><path class="cls-2" d="M50.67 74.84h-16v-11l-9.51 5.49-8-13.86 9.5-5.47-9.51-5.49 8-13.86 9.51 5.49v-11h16v11l9.51-5.49 8 13.86L58.68 50l9.51 5.49-8 13.86-9.51-5.49zm-12-4h8v-13.9l12 7 4-6.94-12-7 12-7-4-6.94-12 7v-13.9h-8v13.9l-12-7-4 6.94 12 7-12 7 4 6.94 12-7zM95.07 0h4v100h-4z"/><path class="cls-2" d="M85.07 26H98.4v4H85.07zm0 44H98.4v4H85.07z"/></g></g></svg>