<svg xmlns="http://www.w3.org/2000/svg" viewBox="0 0 114.52 94.59"><defs><style>.cls-1{fill:#fff}.cls-2{fill:#282d33}.cls-3{fill:#30c0d8}.cls-4{fill:#b7bec0}</style></defs><title>Asset 1</title><g id="Layer_2" data-name="Layer 2"><g id="Layer_4" data-name="Layer 4"><path class="cls-2" d="M94.81 65.1h4v19.92h-4z"/><path class="cls-1" d="M86.19 29.87H94a2.82 2.82 0 0 1 2.82 2.82v2.66z"/><path class="cls-2" d="M98.81 35.35h-4v-2.66a.82.82 0 0 0-.82-.82h-7.8v-4H94a4.82 4.82 0 0 1 4.82 4.82zm-36.38-7.48h11.42v4H62.43z"/><path class="cls-1" d="M14.29 85V32.69a2.82 2.82 0 0 1 2.82-2.82H56z"/><path class="cls-2" d="M16.29 85h-4V32.69a4.82 4.82 0 0 1 4.82-4.82H56v4H17.11a.82.82 0 0 0-.82.82z"/><path class="cls-3" d="M20.29 35.87h70.52v43.07H20.29z"/><path class="cls-1" d="M2 84.76v5.06s3.7 2.76 6.42 2.76h94.26c2.72 0 6.42-2.76 6.42-2.76v-5.06z"/><path class="cls-2" d="M102.68 94.59H8.42c-3.29 0-7.19-2.84-7.62-3.16l-.8-.6v-8.07h111.1v8.06l-.8.6c-.43.33-4.3 3.17-7.62 3.17zM4 88.77a10.33 10.33 0 0 0 4.42 1.81h94.26c1.24 0 3.17-1 4.42-1.82v-2H4zm82.39-22.83h-1.75A12.55 12.55 0 0 1 72.1 53.41V27.6h4v25.8a8.55 8.55 0 0 0 8.54 8.54h1.76a8.55 8.55 0 0 0 8.54-8.54V41.11h4v12.3a12.55 12.55 0 0 1-12.55 12.53z"/><path class="cls-2" d="M59 47.74h-4V22.52a9.86 9.86 0 0 1 9.85-9.84h1.31A9.86 9.86 0 0 1 76 22.52v9.36h-4v-9.36a5.85 5.85 0 0 0-5.85-5.84h-1.27A5.85 5.85 0 0 0 59 22.52z"/><circle class="cls-1" cx="56.84" cy="56.31" r="8.78"/><path class="cls-2" d="M56.84 67.1a10.78 10.78 0 1 1 10.79-10.79A10.8 10.8 0 0 1 56.84 67.1zm0-17.56a6.78 6.78 0 1 0 6.78 6.78 6.79 6.79 0 0 0-6.78-6.79z"/><circle class="cls-4" cx="56.84" cy="56.31" r="4.25"/><path class="cls-3" d="M114.52 21.59h-4V9.31a4.82 4.82 0 0 0-4.81-4.81v-4a8.82 8.82 0 0 1 8.81 8.81zm-31.71.11h-4V9.42A8.82 8.82 0 0 1 87.62.61v4a4.82 4.82 0 0 0-4.81 4.81z"/><path class="cls-2" d="M85.92 5.46l-2-4.59a9.26 9.26 0 0 1 3.7-.76v5a4.28 4.28 0 0 0-1.7.35zm14.3 38.24h-7A14.31 14.31 0 0 1 78.9 29.41v-7.83h4v7.83A10.31 10.31 0 0 0 93.2 39.7h7a10.3 10.3 0 0 0 10.29-10.29v-7.83h4v7.83a14.31 14.31 0 0 1-14.27 14.29zm7.24-38.33a4.25 4.25 0 0 0-1.75-.37V0a9.22 9.22 0 0 1 3.81.81z"/><path class="cls-1" d="M31.23 40.3h5.25v16.44h-5.25z"/><path class="cls-1" d="M25.63 45.9h16.44v5.25H25.63z"/></g></g></svg>