<svg xmlns="http://www.w3.org/2000/svg" viewBox="0 0 104 100.51"><defs><style>.cls-1{fill:#282d33}.cls-2{fill:#30c0d8}</style></defs><title>icon-6</title><g id="Layer_2" data-name="Layer 2"><g id="Layer_4" data-name="Layer 4"><path class="cls-1" d="M52 100.51l-22.52-13v-26.8h4V85.2L52 95.89 70.52 85.2V60.71h4v26.8l-22.52 13z"/><path class="cls-1" d="M32.36 61.75l-2-3.47L52 45.78l21.64 12.5-2 3.46L52 50.4 32.36 61.75z"/><path class="cls-1" d="M104 73.63H77.88v-4H100V30.38H69.43V4H34.39v26.38H4v39.25h21.95v4H0V26.38h30.39V0h43.04v26.38H104v47.25z"/><path class="cls-1" d="M50 70.5h4v26h-4z"/><path class="cls-2" d="M73.53 58.19L52 70.61l9.63 5.56 21.52-12.42-9.62-5.56zm-43.05 0L52 70.61l-9.62 5.56-21.53-12.42 9.63-5.56zm0-.02L52 45.75l-9.62-5.56-21.53 12.42 9.63 5.56zm43.05 0L52 45.75l9.63-5.56 21.52 12.42-9.62 5.56z"/></g></g></svg>