<svg xmlns="http://www.w3.org/2000/svg" viewBox="0 0 96.6 99.35"><defs><style>.cls-1{fill:#282d33}.cls-2{fill:#30c0d8}.cls-3{fill:#fff}.cls-4{fill:#b7bec0}</style></defs><title>icon-5</title><g id="Layer_2" data-name="Layer 2"><g id="Layer_4" data-name="Layer 4"><path class="cls-1" d="M96.42 96.65H23.76V.18h51.8v4h-47.8v88.47h64.66V21.04h4v75.61z"/><path class="cls-2" d="M78.74 17.86H96.6L78.74 0v17.86z"/><path class="cls-3" d="M75.07 39.56h10.62v7.48H75.07z"/><path class="cls-1" d="M87.7 49H73.07V37.56H87.7zm-10.63-4h6.63v-3.44h-6.63z"/><path class="cls-3" d="M52.96 39.56h22.11v7.48H52.96z"/><path class="cls-1" d="M77.07 49H51V37.56h26.07zM55 45h18.07v-3.44H55z"/><path class="cls-3" d="M33.96 39.56h19.65v7.48H33.96z"/><path class="cls-1" d="M55.61 49H32V37.56h23.61zM36 45h15.61v-3.44H36z"/><path class="cls-3" d="M33.96 39.56h51.67v33.5H33.96z"/><path class="cls-1" d="M87.63 75.06H32v-37.5h55.63zm-51.63-4h47.63v-29.5H36z"/><path class="cls-1" d="M33.72 45.18h52.09v4H33.72z"/><path class="cls-1" d="M72.89 39.44h4v34.12h-4zm-21.46 0h4v34.12h-4zM66.8 80.71h19.71v4H66.8z"/><path class="cls-4" d="M7.9 2.63h7.59v85.98H7.9z"/><path class="cls-1" d="M17.49 88.61h-4V4.63H9.9v83.98h-4V.63h11.59v87.98z"/><path class="cls-1" d="M8.45 52.92h7.35v4H8.45zm0-5.75h7.35v4H8.45zM4 37.14H0V7.13h16.75v4H4v26.01z"/><path class="cls-3" d="M15.49 89.61v-.89H7.9v1.89l1.9 6.74h3.79l1.9-6.74v-1z"/><path class="cls-1" d="M15.11 99.35H8.28L5.9 90.88v-4.16h11.59v4.16zm-3.79-4h.76l1.3-4.63H10z"/><path class="cls-2" d="M41.15 9.88h7.41V33.1h-7.41z"/><path class="cls-2" d="M33.25 17.79h23.22v7.41H33.25z"/></g></g></svg>