<svg xmlns="http://www.w3.org/2000/svg" viewBox="0 0 87.16 96.14"><defs><style>.cls-1{fill:#282d33}.cls-2{fill:#30c0d8}.cls-3{fill:#fff}</style></defs><title>icon-3</title><g id="Layer_2" data-name="Layer 2"><g id="Layer_4" data-name="Layer 4"><path class="cls-1" d="M76.69 96.14h-4v-33a2 2 0 0 1 .58-1.41 33.81 33.81 0 1 0-57.73-23.92v1.54a2 2 0 0 1-.27 1.08L5.46 57.48h4.86a2 2 0 0 1 2 2v14.14A7.66 7.66 0 0 0 20 81.28h15.27a2 2 0 0 1 2 2v12.86h-4V85.28H20A11.67 11.67 0 0 1 8.32 73.62V61.48H2a2 2 0 0 1-1.73-3l11.29-19.55v-1.12a37.81 37.81 0 1 1 65.13 26.11z"/><path class="cls-1" d="M48.91 65.8a28 28 0 0 1-28-28h4a24 24 0 1 0 24-24v-4a28 28 0 0 1 0 56z"/><path class="cls-1" d="M24.92 37.81h-4c0-.72 0-1.44.08-2.15l4 .34c-.05.57-.08 1.19-.08 1.81zm.65-5.58l-3.89-.93A27.89 27.89 0 0 1 23 27.12l3.7 1.53a23.85 23.85 0 0 0-1.13 3.58zm2.87-6.94L25 23.2a28.07 28.07 0 0 1 2.59-3.56l3 2.6a24.16 24.16 0 0 0-2.14 3.05zm4.89-5.72l-2.6-3a28.06 28.06 0 0 1 3.56-2.59l2.09 3.41a24.11 24.11 0 0 0-3.05 2.18zm6.41-3.93l-1.53-3.7a27.82 27.82 0 0 1 4.19-1.36l.93 3.89a23.8 23.8 0 0 0-3.59 1.17zm7.32-1.75l-.3-4c.7-.05 1.43-.08 2.15-.08v4c-.62.02-1.24.04-1.85.08z"/><circle class="cls-2" cx="48.91" cy="37.81" r="18.51"/><path class="cls-3" d="M38.74 34.81h20.34v6H38.74z"/><path class="cls-3" d="M45.91 27.64h6v20.34h-6z"/></g></g></svg>