<svg xmlns="http://www.w3.org/2000/svg" viewBox="0 0 60.26 97.18"><defs><style>.cls-1{fill:#282d33}.cls-2{fill:#30c0d8}.cls-3{fill:#fff}</style></defs><title>icon-4</title><g id="Layer_2" data-name="Layer 2"><g id="Layer_4" data-name="Layer 4"><path class="cls-1" d="M42.73 73.71h-6.4v-4h6.4a3.49 3.49 0 0 0 3.48-3.48v-.91a3.49 3.49 0 0 0-3.48-3.48H25.37v-4h17.36a7.49 7.49 0 0 1 7.48 7.48v.91a7.49 7.49 0 0 1-7.48 7.48z"/><path class="cls-1" d="M39.31 61.8H21.95a7.49 7.49 0 0 1-7.48-7.48v-.91a7.49 7.49 0 0 1 7.48-7.48h6.4v4h-6.4a3.49 3.49 0 0 0-3.48 3.48v.91a3.49 3.49 0 0 0 3.48 3.48h17.36zM45.83 38H17.71A17.74 17.74 0 0 1 0 20.33v-2.62A17.73 17.73 0 0 1 17.71 0h1.52v4h-1.52A13.73 13.73 0 0 0 4 17.71v2.62A13.73 13.73 0 0 0 17.71 34h28.12z"/><path class="cls-1" d="M36.83 17.72h-4A13.73 13.73 0 0 0 19.12 4V0h.14a17.74 17.74 0 0 1 17.57 17.72z"/><path class="cls-2" d="M31.63 28.82h5v65h-5z"/><path class="cls-2" d="M10.48 21.15a8.66 8.66 0 0 0 8.65 8.33h30a8.66 8.66 0 0 0 8.65-8.33z"/><path class="cls-1" d="M36.53 85.61h-5.4a7.49 7.49 0 0 1-7.48-7.48v-.91a7.49 7.49 0 0 1 7.48-7.48h6.4v4h-6.4a3.49 3.49 0 0 0-3.48 3.48v.91a3.49 3.49 0 0 0 3.48 3.48h5.4zm16.22-35.69H26.64v-4h26.11a3.51 3.51 0 0 0 3.5-3.51v-.91a3.51 3.51 0 0 0-3.5-3.5H39.43v-4h13.32a7.51 7.51 0 0 1 7.5 7.51v.92a7.51 7.51 0 0 1-7.5 7.49z"/><circle class="cls-3" cx="34.6" cy="11.82" r="5.17"/><path class="cls-1" d="M34.6 19a7.17 7.17 0 1 1 7.17-7.17A7.18 7.18 0 0 1 34.6 19zm0-10.33a3.17 3.17 0 1 0 3.17 3.17 3.17 3.17 0 0 0-3.17-3.19z"/><path class="cls-2" d="M19.34 97.18H49a13.49 13.49 0 0 0-11-5.73h-7.61a13.49 13.49 0 0 0-11.05 5.73z"/></g></g></svg>